{
    "asset" : {
        "generator" : "Khronos glTF Blender I/O v1.1.46",
        "version" : "2.0"
    },
    "scene" : 0,
    "scenes" : [
        {
            "name" : "Scene",
            "nodes" : [
                0,
                1,
                2
            ]
        }
    ],
    "nodes" : [
        {
            "mesh" : 0,
            "name" : "obj_0",
            "rotation" : [
                0.7071067690849304,
                0,
                0,
                0.7071067690849304
            ],
            "scale" : [
                0.009999999776482582,
                0.009999999776482582,
                0.009999999776482582
            ],
            "translation" : [
                0,
                -1.75,
                0
            ]
        },
        {
            "mesh" : 1,
            "name" : "Andy",
            "rotation" : [
                0.7071067690849304,
                0,
                0,
                0.7071067690849304
            ]
        },
        {
            "mesh" : 2,
            "name" : "Andy.001",
            "rotation" : [
                0.7071067690849304,
                0,
                0,
                0.7071067690849304
            ]
        }
    ],
    "materials" : [
        {
            "doubleSided" : true,
            "emissiveFactor" : [
                0,
                0,
                0
            ],
            "name" : "color_11909273",
            "pbrMetallicRoughness" : {
                "baseColorFactor" : [
                    1,
                    0.2622506022453308,
                    0.07227188348770142,
                    1
                ],
                "metallicFactor" : 0,
                "roughnessFactor" : 0.5
            }
        },
        {
            "doubleSided" : true,
            "emissiveFactor" : [
                0,
                0,
                0
            ],
            "name" : "Material.001",
            "pbrMetallicRoughness" : {
                "baseColorFactor" : [
                    40.46007537841797,
                    0,
                    40.46007537841797,
                    100
                ],
                "metallicFactor" : 0,
                "roughnessFactor" : 0.5
            }
        },
        {
            "doubleSided" : true,
            "emissiveFactor" : [
                0,
                0,
                0
            ],
            "name" : "Material.002",
            "pbrMetallicRoughness" : {
                "baseColorFactor" : [
                    0,
                    40.46007537841797,
                    40.46007537841797,
                    100
                ],
                "metallicFactor" : 0,
                "roughnessFactor" : 0.5
            }
        }
    ],
    "meshes" : [
        {
            "name" : "obj_0",
            "primitives" : [
                {
                    "attributes" : {
                        "POSITION" : 0,
                        "NORMAL" : 1
                    },
                    "indices" : 2,
                    "material" : 0
                }
            ]
        },
        {
            "name" : "Andy",
            "primitives" : [
                {
                    "attributes" : {
                        "POSITION" : 3,
                        "NORMAL" : 4,
                        "TEXCOORD_0" : 5
                    },
                    "indices" : 6,
                    "material" : 1
                }
            ]
        },
        {
            "name" : "Andy.002",
            "primitives" : [
                {
                    "attributes" : {
                        "POSITION" : 7,
                        "NORMAL" : 8,
                        "TEXCOORD_0" : 9
                    },
                    "indices" : 10,
                    "material" : 2
                }
            ]
        }
    ],
    "accessors" : [
        {
            "bufferView" : 0,
            "componentType" : 5126,
            "count" : 1405,
            "max" : [
                360.20001220703125,
                10,
                19.5
            ],
            "min" : [
                -329.79998779296875,
                0,
                -37.099998474121094
            ],
            "type" : "VEC3"
        },
        {
            "bufferView" : 1,
            "componentType" : 5126,
            "count" : 1405,
            "type" : "VEC3"
        },
        {
            "bufferView" : 2,
            "componentType" : 5123,
            "count" : 8364,
            "type" : "SCALAR"
        },
        {
            "bufferView" : 3,
            "componentType" : 5126,
            "count" : 14820,
            "max" : [
                3.0800108909606934,
                0.06999999284744263,
                1.2400000095367432
            ],
            "min" : [
                -3.0920066833496094,
                -0.06999999284744263,
                0.29529714584350586
            ],
            "type" : "VEC3"
        },
        {
            "bufferView" : 4,
            "componentType" : 5126,
            "count" : 14820,
            "type" : "VEC3"
        },
        {
            "bufferView" : 5,
            "componentType" : 5126,
            "count" : 14820,
            "type" : "VEC2"
        },
        {
            "bufferView" : 6,
            "componentType" : 5123,
            "count" : 62664,
            "type" : "SCALAR"
        },
        {
            "bufferView" : 7,
            "componentType" : 5126,
            "count" : 7801,
            "max" : [
                2.3125171661376953,
                0.06999999284744263,
                0.24000000953674316
            ],
            "min" : [
                -2.357645273208618,
                -0.06999999284744263,
                -0.6960000395774841
            ],
            "type" : "VEC3"
        },
        {
            "bufferView" : 8,
            "componentType" : 5126,
            "count" : 7801,
            "type" : "VEC3"
        },
        {
            "bufferView" : 9,
            "componentType" : 5126,
            "count" : 7801,
            "type" : "VEC2"
        },
        {
            "bufferView" : 10,
            "componentType" : 5123,
            "count" : 32892,
            "type" : "SCALAR"
        }
    ],
    "bufferViews" : [
        {
            "buffer" : 0,
            "byteLength" : 16860,
            "byteOffset" : 0
        },
        {
            "buffer" : 0,
            "byteLength" : 16860,
            "byteOffset" : 16860
        },
        {
            "buffer" : 0,
            "byteLength" : 16728,
            "byteOffset" : 33720
        },
        {
            "buffer" : 0,
            "byteLength" : 177840,
            "byteOffset" : 50448
        },
        {
            "buffer" : 0,
            "byteLength" : 177840,
            "byteOffset" : 228288
        },
        {
            "buffer" : 0,
            "byteLength" : 118560,
            "byteOffset" : 406128
        },
        {
            "buffer" : 0,
            "byteLength" : 125328,
            "byteOffset" : 524688
        },
        {
            "buffer" : 0,
            "byteLength" : 93612,
            "byteOffset" : 650016
        },
        {
            "buffer" : 0,
            "byteLength" : 93612,
            "byteOffset" : 743628
        },
        {
            "buffer" : 0,
            "byteLength" : 62408,
            "byteOffset" : 837240
        },
        {
            "buffer" : 0,
            "byteLength" : 65784,
            "byteOffset" : 899648
        }
    ],
    "buffers" : [
        {
            "byteLength" : 965432,
            "uri" : "data:application/octet-stream;base64,"
        }
    ]
}
